# xmcd
#
# Track frame offsets:
#	150
#	9233
#	23413
#	38698
#	53781
#	67903
#	82103
#	100458
#	114177
#	128253
#	144263
#	157545
#	171952
#	186950
#	214093
#
# Disc length: 3047 seconds
#
# Revision: 0
# Processed by: cddbd v1.5.2PL0 Copyright (c) Steve Scherf et al.
# Submitted via: dBpowerAMP V4.0
#
DISCID=ac0be50f
DTITLE=Red Molly - Light in the Sky
DYEAR=2011
DGENRE=Singer Songwriter
TTITLE0=Dear Someone
TTITLE1=Walk Beside Me
TTITLE2=Come on in My Kitchen
TTITLE3=Do I Ever Cross Your Mind
TTITLE4=Oh My Michael
TTITLE5=Does My Ring Burn Your Finger
TTITLE6=Ghost
TTITLE7=Hold It All
TTITLE8=Hello Goodbye
TTITLE9=Your Long Journey
TTITLE10=By the Mark
TTITLE11=It's Too Late to Call It a Night
TTITLE12=Why Should I Cry
TTITLE13=Fever
TTITLE14=DATA
EXTD=
EXTT0=
EXTT1=
EXTT2=
EXTT3=
EXTT4=
EXTT5=
EXTT6=
EXTT7=
EXTT8=
EXTT9=
EXTT10=
EXTT11=
EXTT12=
EXTT13=
EXTT14=
PLAYORDER=
